<svg data-name="Layer 1" xmlns="http://www.w3.org/2000/svg" viewBox="0 0 444.7 81.78"><defs><style>.cls-1{fill:#1f2c35;}</style></defs><path class="cls-1" d="M137.17,86.62V73.32h8.15V86.38c0,3.69,1.42,5.07,3.7,5.07s3.69-1.38,3.69-5.07V73.32h8v13.3c0,7.25-4.35,11.43-11.77,11.43S137.17,93.87,137.17,86.62Zm72.11-13.3V97.49h-6.7l-9.18-11v11h-7.94V73.32h6.7l9.18,11v-11Zm24.94,0h8.15V91.18h10.91v6.31H234.22Zm41.67,0H284V97.49h-8.15Zm54.62,24.17-.07-11-5.25,8.84H321.6l-5.25-8.46V97.49h-7.43V73.32h6.7L323.5,86.2l7.66-12.88h6.7l.07,24.17Zm32.36-24.17H371V97.49h-8.15Zm37.74,6.32h-7.08V73.32h22.31v6.32h-7.08V97.49h-8.15Zm57.87,11.71v6.14h-20.1V73.32H458v6.15H446.39V82.3h10.22v5.87H446.39v3.18Zm24.24-18h11.92c8.08,0,13.64,4.6,13.64,12.09s-5.56,12.08-13.64,12.08H482.72Zm11.57,17.82c3.42,0,5.77-2,5.77-5.73s-2.35-5.73-5.77-5.73h-3.42V91.14Zm-356.37,26.2h9.6c6.92,0,11.66,4.17,11.66,10.57s-4.74,10.57-11.66,10.57h-9.6Zm9.36,17.12c4.2,0,6.95-2.5,6.95-6.55s-2.75-6.55-6.95-6.55h-4.47v13.1ZM181.85,122v4.35c-.4,0-.7-.06-1.06-.06-2.6,0-4.32,1.42-4.32,4.53v7.67h-4.71V122.23h4.5v2.15C177.41,122.81,179.34,122,181.85,122Zm29.05,13.65,1.33-1.51a5.37,5.37,0,0,0,4.56,2.6c2.6,0,3.93-1.54,3.93-4.65V119.27H213v-1.93h9.93V132c0,4.46-2.11,6.67-6.16,6.67A7,7,0,0,1,210.9,135.64Zm25.47-5.1a8.08,8.08,0,1,1,8.09,8.09A7.82,7.82,0,0,1,236.37,130.54Zm14,0c0-3.72-2.5-6.19-5.89-6.19a6.2,6.2,0,0,0,0,12.38C247.85,136.73,250.35,134.25,250.35,130.54Zm29.47.66H266.53a5.89,5.89,0,0,0,6.26,5.53,6.27,6.27,0,0,0,4.86-2.09l1.21,1.39a7.83,7.83,0,0,1-6.13,2.6c-5,0-8.34-3.38-8.34-8.09s3.29-8.07,7.76-8.07,7.7,3.29,7.7,8.07C279.85,130.72,279.82,131,279.82,131.2Zm-13.29-1.6H277.8a5.65,5.65,0,0,0-11.27,0Zm44.6-12.26h8.61c6.77,0,11.33,4.35,11.33,10.57s-4.56,10.57-11.33,10.57h-8.61Zm8.49,19.21c5.62,0,9.24-3.57,9.24-8.64s-3.62-8.64-9.24-8.64h-6.25v17.28Zm24.4-19a1.55,1.55,0,0,1,1.57-1.51,1.53,1.53,0,1,1,0,3.05A1.55,1.55,0,0,1,344,117.58Zm.48,5h2.15v15.89H344.5Zm14.79,14.08,1-1.7a9.54,9.54,0,0,0,5.64,1.79c3,0,4.26-1,4.26-2.6,0-4.14-10.3-.88-10.3-7.16,0-2.59,2.24-4.53,6.28-4.53a10.82,10.82,0,0,1,5.62,1.48l-.94,1.72a8.16,8.16,0,0,0-4.68-1.35c-2.86,0-4.13,1.11-4.13,2.62,0,4.29,10.29,1.06,10.29,7.16,0,2.75-2.41,4.53-6.55,4.53A10.65,10.65,0,0,1,359.29,136.67Zm41.88-6.13a7.69,7.69,0,0,1-7.91,8.09,6.94,6.94,0,0,1-6-3.14v8.85h-2.15V122.59h2.06v3.14a6.92,6.92,0,0,1,6.13-3.26A7.68,7.68,0,0,1,401.17,130.54Zm-2.14,0a5.93,5.93,0,1,0-5.92,6.19A5.85,5.85,0,0,0,399,130.54Zm29.43.66H415.18a5.88,5.88,0,0,0,6.25,5.53,6.27,6.27,0,0,0,4.86-2.09L427.5,136a7.83,7.83,0,0,1-6.13,2.6c-4.95,0-8.34-3.38-8.34-8.09s3.3-8.07,7.76-8.07,7.7,3.29,7.7,8.07C428.49,130.72,428.46,131,428.46,131.2Zm-13.28-1.6h11.26a5.64,5.64,0,0,0-11.26,0Zm41-.33v9.21H454v-9c0-3.35-1.75-5.07-4.77-5.07-3.41,0-5.56,2.11-5.56,5.73v8.34h-2.14V122.59h2.05v2.93a6.69,6.69,0,0,1,6-3C453.49,122.47,456.15,124.71,456.15,129.27Zm25.43,7.43v1.78H468.66v-1.42l10-12.65h-9.81v-1.82H481.4V124l-10,12.69Zm24.89-8.07v9.85h-2.06V136c-1,1.63-2.84,2.63-5.46,2.63-3.6,0-5.8-1.87-5.8-4.62,0-2.45,1.57-4.5,6.13-4.5h5v-1c0-2.71-1.54-4.19-4.5-4.19a8.07,8.07,0,0,0-5.28,1.87l-1-1.6a10.09,10.09,0,0,1,6.46-2.15C504.14,122.47,506.47,124.53,506.47,128.63Zm-2.15,5.08v-2.6h-5c-3.08,0-4.08,1.21-4.08,2.84,0,1.84,1.48,3,4,3A5.08,5.08,0,0,0,504.32,133.71ZM63.57,146.58H76.1L104.88,64.8H92.35Z" transform="translate(-63.57 -64.8)"></path></svg>